<svg width="80" height="80" viewBox="0 0 80 80" fill="none" xmlns="http://www.w3.org/2000/svg">
<rect width="80" height="80" rx="11" fill="#00796B"/>
<path d="M62 39C62 51.7025 51.7025 62 39 62C26.2975 62 16 51.7025 16 39C16 26.2975 26.2975 16 39 16C51.7025 16 62 26.2975 62 39Z" fill="#C6FF00"/>
<path d="M39.0651 69L39 72" stroke="#C6FF00" stroke-width="4" stroke-linecap="round"/>
<path d="M6 40H9" stroke="#C6FF00" stroke-width="4" stroke-linecap="round"/>
<path d="M18.3837 18.0967L14 13.9999" stroke="#C6FF00" stroke-width="4" stroke-linecap="round"/>
<path d="M39 6L39.0228 8.99974" stroke="#C6FF00" stroke-width="4" stroke-linecap="round"/>
<path d="M64.3346 14L60 18.1487" stroke="#C6FF00" stroke-width="4" stroke-linecap="round"/>
<path d="M64.2426 64.2427L60 60" stroke="#C6FF00" stroke-width="4" stroke-linecap="round"/>
<path d="M18.1703 60L14 64.3138" stroke="#C6FF00" stroke-width="4" stroke-linecap="round"/>
<path d="M69 40H72" stroke="#C6FF00" stroke-width="4" stroke-linecap="round"/>
<path d="M46.2132 33.071C50.1185 36.9763 50.1185 43.3079 46.2132 47.2132V47.2132C42.308 51.1184 35.9763 51.1184 32.0711 47.2132V47.2132C28.1659 43.3079 28.1659 36.9763 32.0711 33.071L39.1422 26L46.2132 33.071Z" fill="#01579B"/>
<ellipse cx="47" cy="39" rx="2" ry="4" fill="#4DD0E1"/>
</svg>
